<svg width="83" height="95" viewBox="0 0 83 95" fill="none" xmlns="http://www.w3.org/2000/svg">
<rect width="83" height="95" fill="#1E1E1E"/>
<rect width="1920" height="12541" transform="translate(-197 -39)" fill="white"/>
<rect width="1920" height="177" transform="translate(-197.18 -39)" fill="white"/>
<path d="M70.6891 15.5982L41.7689 6.19092L12.8486 15.5982L41.7689 24.964L70.6891 15.5982Z" fill="#FFD471"/>
<path d="M38.9427 29.9783L6.57361 19.4521V22.2287L38.9427 32.7135V29.9783Z" fill="#FFD471"/>
<path d="M44.5944 29.9783V32.7135L76.9634 22.2287V19.4521L44.5944 29.9783Z" fill="#FFD471"/>
<path d="M30.7573 56.1279L41.7686 84.4325L52.7799 56.1279L42.6412 59.4018C42.3503 59.4847 42.0594 59.5261 41.7686 59.5261C41.4777 59.5261 41.1868 59.4847 40.896 59.4018L30.7573 56.1279Z" fill="#00A0CC"/>
<path d="M74.1795 29.0249L44.5944 38.6393V52.8538L74.1795 43.2808V29.0249Z" fill="white"/>
<path d="M38.9432 38.6393L9.35809 29.0249V43.2808L38.9432 52.8538V38.6393Z" fill="white"/>
<path d="M9.52413 56.7493V66.9854C9.52413 68.5187 8.27757 69.8034 6.69859 69.8034C5.11961 69.8034 3.87305 68.5601 3.87305 66.9854V56.7493C3.87305 55.2159 5.11961 53.9313 6.69859 53.9313C8.27757 53.9313 9.52413 55.1745 9.52413 56.7493ZM19.8706 58.1997C18.3332 58.1997 17.0451 59.443 17.0451 61.0178V78.5476C17.0451 80.0809 18.2916 81.3656 19.8706 81.3656C21.408 81.3656 22.6961 80.1223 22.6961 78.5476V61.0178C22.6961 59.4844 21.408 58.1997 19.8706 58.1997ZM76.8385 53.9313C75.3011 53.9313 74.013 55.1745 74.013 56.7493V66.9854C74.013 68.5187 75.2595 69.8034 76.8385 69.8034C78.4175 69.8034 79.6641 68.5601 79.6641 66.9854V56.7493C79.6641 55.1745 78.3759 53.9313 76.8385 53.9313ZM63.6665 58.1997C62.1291 58.1997 60.841 59.443 60.841 61.0178V78.5476C60.841 80.0809 62.0875 81.3656 63.6665 81.3656C65.2455 81.3656 66.4921 80.1223 66.4921 78.5476V61.0178C66.4921 59.4844 65.2039 58.1997 63.6665 58.1997ZM82.6143 15.5978V24.2591C82.6143 25.4609 81.8248 26.5384 80.6613 26.9113L79.8303 27.2014V45.3114C79.8303 46.5132 79.0408 47.5907 77.8773 47.9637L59.6775 53.8898L44.3863 93.2179C43.9708 94.2954 42.932 94.9999 41.7686 94.9999C40.6051 94.9999 39.5663 94.2954 39.1508 93.2179L23.8596 53.8898L5.65979 48.0051C4.49633 47.6321 3.70684 46.5547 3.70684 45.3528V27.2014L2.8758 26.9113C1.71234 26.5384 0.922852 25.4609 0.922852 24.2591V15.6807C0.922852 15.6392 0.922852 15.5978 0.922852 15.5978C0.922852 14.4374 1.62924 13.4014 2.66804 12.987C2.75114 12.9455 2.7927 12.9455 2.8758 12.9041L40.896 0.554501C41.4777 0.388734 42.0594 0.388734 42.6412 0.554501L80.6613 12.9041C81.8248 13.2771 82.6143 14.3545 82.6143 15.5978ZM76.9632 19.4519L44.5941 29.978V32.7132L76.9632 22.2284V19.4519ZM12.8483 15.5978L41.7686 25.005L70.6888 15.5978L41.7686 6.19056L12.8483 15.5978ZM6.57394 22.2284L38.943 32.7546V30.0195L6.57394 19.4519V22.2284ZM9.35793 43.2808L38.943 52.8952V38.6393L9.35793 29.0249V43.2808ZM52.7383 56.1277L42.5996 59.4015C42.558 59.4015 42.4749 59.443 42.3918 59.443C42.3503 59.443 42.2672 59.4844 42.2256 59.4844C42.0594 59.5259 41.8932 59.5259 41.727 59.5259C41.5608 59.5259 41.3946 59.5259 41.2284 59.4844C41.1868 59.4844 41.1037 59.443 41.0622 59.443C40.9791 59.443 40.9375 59.4015 40.8544 59.4015L30.7157 56.1277L41.727 84.4323L52.7383 56.1277ZM44.5941 38.6393V52.8952L74.1792 43.2808V29.0249L44.5941 38.6393Z" fill="#2A2B65"/>
</svg>
